<svg id="Layer_1" data-name="Layer 1" xmlns="http://www.w3.org/2000/svg" viewBox="0 0 524 72.36"><defs><style>.cls-1{fill:#50bf00;}.cls-2{fill:#f2f2f2;}.cls-3{fill:#6aff00;}</style></defs><title>vertemologo_white</title><rect class="cls-1" x="92" y="16" width="64" height="8" rx="4" ry="4"/><path class="cls-2" d="M294,20a4,4,0,0,1-4,4H268V68a4,4,0,1,1-8,0V24H238a4,4,0,0,1,0-8h52A4,4,0,0,1,294,20Z" transform="translate(0 0)"/><path class="cls-2" d="M452,19.93a4,4,0,0,0,0-.49c0-.09,0-.19,0-.28a4,4,0,0,0-.18-.59s0-.09,0-.13a4,4,0,0,0-.84-1.24l0,0-.1-.11a3.92,3.92,0,0,0-.42-.32l-.1-.07a3.92,3.92,0,0,0-.53-.29l-.18-.09a4,4,0,0,0-.5-.16l-.27-.07a4,4,0,0,0-.48,0L448,16h-.07a4,4,0,0,0-.45,0l-.33,0a4,4,0,0,0-.45.14l-.28.09a4,4,0,0,0-.48.26l-.18.11a4,4,0,0,0-.4.33l-.2.18-.07.07L420,44.3l-25.07-27-.07-.07-.2-.18a4,4,0,0,0-.4-.33l-.18-.11a4,4,0,0,0-.48-.26l-.28-.09a4,4,0,0,0-.45-.14l-.33,0a4,4,0,0,0-.45,0H392l-.25,0a4,4,0,0,0-.48,0l-.27.07a4,4,0,0,0-.5.16l-.18.09a3.92,3.92,0,0,0-.53.29l-.1.07a3.92,3.92,0,0,0-.42.32l-.1.11,0,0a4,4,0,0,0-.84,1.24s0,.09,0,.13a4,4,0,0,0-.18.59c0,.09,0,.19,0,.29a4,4,0,0,0,0,.49s0,0,0,.07V68a4,4,0,1,0,8,0V30.2l20.66,22.26a4,4,0,0,0,.59.7h0a4,4,0,0,0,2.48,1l.28,0,.28,0a4,4,0,0,0,2.48-1h0a4,4,0,0,0,.59-.7L444,30.2V68a4,4,0,1,0,8,0V20S452,20,452,19.93Z" transform="translate(0 0)"/><circle class="cls-3" cx="144"/><path class="cls-1" d="M223.81,45.2c-.32-.35-.66-.69-1-1a16.12,16.12,0,0,0-2.55-1.89A16,16,0,0,0,208,16H168a4,4,0,0,0-4,4,4,4,0,0,0,4,4h40a8,8,0,0,1,0,16H168a4,4,0,0,0-4,4V68a4,4,0,1,0,8,0V50a2,2,0,0,1,2-2h38a8,8,0,0,1,8,8V68a3.8,3.8,0,0,0,.37,1.65A4,4,0,0,0,228,68V56A16,16,0,0,0,223.81,45.2Z" transform="translate(0 0)"/><path class="cls-1" d="M152,64H102a2,2,0,0,1-2-2V50a2,2,0,0,1,2-2h46a4,4,0,0,0,4-4,4,4,0,0,0-4-4H96a4,4,0,0,0-4,4V68a4,4,0,0,0,4,4h56a4,4,0,0,0,4-4A4,4,0,0,0,152,64Z" transform="translate(0 0)"/><rect class="cls-2" x="300" y="16" width="64" height="8" rx="4" ry="4"/><path class="cls-2" d="M360,64H310a2,2,0,0,1-2-2V50a2,2,0,0,1,2-2h46a4,4,0,0,0,4-4,4,4,0,0,0-4-4H304a4,4,0,0,0-4,4V68a4,4,0,0,0,4,4h56a4,4,0,0,0,4-4A4,4,0,0,0,360,64Z" transform="translate(0 0)"/><path class="cls-1" d="M520,0H88a4,4,0,0,0-3.26,1.71l-.06.06s0,0,0,0L46,60.75,7.34,1.8A4,4,0,0,0,0,4,4,4,0,0,0,.65,6.19L41.83,69l1,1.6A3.93,3.93,0,0,0,46,72.35h0a4,4,0,0,0,3.08-1.78l1-1.6L85,15.87l3.79-5.77.09-.15.19-.29A4,4,0,0,1,92.31,8H520a4,4,0,1,0,0-8Z" transform="translate(0 0)"/><rect class="cls-2" x="243.01" y="45.98" width="2" height="26"/><rect class="cls-2" x="375.01" y="45.98" width="2" height="26"/><path class="cls-2" d="M522.83,22.81a12,12,0,0,0-1-1.75q-.29-.41-.62-.8A11.95,11.95,0,0,0,512,16H472a12.21,12.21,0,0,0-1.37.08,11.93,11.93,0,0,0-7.8,4.18q-.33.39-.62.8A11.91,11.91,0,0,0,460,28V60a12,12,0,0,0,12,12h40a12,12,0,0,0,12-12V28A12,12,0,0,0,522.83,22.81ZM476.46,64H472a4,4,0,0,1-4-4V28a4,4,0,0,1,4-4h40a4,4,0,0,1,4,4V60a4,4,0,0,1-4,4H476.46Z" transform="translate(0 0)"/></svg>